<svg width="819" height="804" viewBox="0 0 819 804" fill="none" xmlns="http://www.w3.org/2000/svg">
<path d="M807.687 309.075C789.963 236.306 755.563 176.229 709.197 127.173C697.275 114.553 676.556 86.8989 656.942 85.9684C648.917 85.5904 631.12 105.742 619.751 117.126C585.554 151.308 548.362 188.515 515.227 221.635C491.368 245.48 465.386 267.958 447.895 293.998C438.386 308.174 429.255 323.019 421.768 338.227C412.841 356.314 403.448 378.923 388.603 389.478C373.628 400.121 350.292 404.672 331.318 411.593C312.955 418.281 286.391 425.085 275.036 436.717C269.424 442.474 265.411 452.201 259.973 460.823C226.824 513.325 190.926 576.499 157.456 626.645C144.152 615.726 135.254 600.648 126.298 586.458C99.3275 543.683 78.2163 492.475 75.0468 425.652C70.6559 333.473 96.4487 262.462 136.345 205.555C193.223 124.425 283.469 63.9848 415.734 59.8266C451.166 58.7216 478.864 65.1334 507.187 73.9007C514.34 76.1107 527.047 83.1914 533.314 82.9442C543.23 82.5371 553.364 68.463 559.339 61.833C566.347 54.0689 572.832 48.2387 574.911 40.2856C574.911 40.2856 574.911 40.2711 574.911 40.2565C574.94 40.1257 574.969 39.9948 574.998 39.864C575.376 37.4359 573.399 35.3858 572.439 34.5571C560.532 26.4877 545.571 21.8496 531.293 17.6041C483.546 3.41369 425.17 -2.86733 368.51 1.55265C296.86 7.13578 231.651 34.2227 183.598 65.8749C98.1062 122.157 31.5885 209.393 8.79072 328.166C5.47574 345.424 4.61792 366.259 0.808594 383.444V418.63C10.3028 539.22 58.5736 627.663 127.374 694.995C133.83 701.319 154.621 719.799 161.513 719.115C168.884 718.388 182.158 703.486 190.635 694.995C236.463 649.166 277.464 608.165 323.292 562.337C341.06 544.57 363.218 526.018 374.544 508.076C390.77 482.385 396.585 445.455 417.769 427.673C433.705 414.283 459.003 409.325 480.071 399.525C500.949 389.813 526.422 384.201 541.369 371.377C553.582 360.908 562.465 339.943 572.527 324.153C598.465 283.428 620.449 246.643 646.896 203.548C652.217 194.868 658.731 181.943 662.976 181.449C671.496 180.445 688.028 208.419 692.113 214.613C717.499 253.055 734.423 301.268 742.376 349.291C755.534 428.793 736.008 505.154 710.215 556.318C683.579 609.139 641.531 655.607 593.638 686.969C524.721 732.114 417.784 763.083 316.27 732.201C307.125 729.409 298.532 724.495 290.143 725.164C285.214 725.556 281.201 727.665 277.624 730.5C275.938 731.852 274.338 733.364 272.812 734.949L256.935 749.634C251.148 754.635 244.474 761.527 244.94 766.339C245.725 774.598 263.506 778.087 276.083 782.42C358.71 810.859 476.029 811.484 555.472 780.414C645.093 745.374 713.341 687.71 759.489 610.564C804.343 535.599 836.373 426.685 807.73 309.061L807.687 309.075Z" fill="white" fill-opacity="0.2"/>
</svg>
