<svg width="120" height="121" viewBox="0 0 120 121" fill="none" xmlns="http://www.w3.org/2000/svg">
<rect x="-0.00585938" y="0.302002" width="120" height="120" rx="60" fill="black"/>
<path d="M86.9302 54.0161C85.7307 49.0909 83.4024 45.0247 80.2642 41.7044C79.4572 40.8503 78.0549 38.9786 76.7274 38.9156C76.1842 38.89 74.9797 40.2539 74.2102 41.0244C71.8956 43.338 69.3784 45.8562 67.1357 48.0979C65.5208 49.7118 63.7623 51.2332 62.5785 52.9956C61.9349 53.9551 61.3169 54.9598 60.8101 55.9892C60.2059 57.2134 59.5702 58.7436 58.5654 59.458C57.5518 60.1784 55.9724 60.4864 54.6882 60.9548C53.4453 61.4075 51.6474 61.868 50.8789 62.6553C50.499 63.045 50.2274 63.7033 49.8594 64.2868C47.6157 67.8403 45.186 72.1161 42.9207 75.5102C42.0203 74.7711 41.418 73.7506 40.8119 72.7902C38.9864 69.8951 37.5575 66.4292 37.343 61.9064C37.0458 55.6674 38.7916 50.8612 41.4918 47.0095C45.3415 41.5184 51.4496 37.4277 60.4017 37.1462C62.7999 37.0714 64.6745 37.5054 66.5915 38.0988C67.0757 38.2484 67.9357 38.7276 68.3599 38.7109C69.031 38.6833 69.7169 37.7308 70.1214 37.282C70.5957 36.7565 71.0346 36.3619 71.1753 35.8236C71.1753 35.8236 71.1753 35.8227 71.1753 35.8217C71.1773 35.8128 71.1792 35.804 71.1812 35.7951C71.2068 35.6308 71.073 35.492 71.008 35.4359C70.2021 34.8898 69.1894 34.5758 68.2231 34.2885C64.9914 33.328 61.0404 32.9029 57.2055 33.2021C52.356 33.58 47.9424 35.4133 44.6901 37.5556C38.9037 41.3649 34.4016 47.2693 32.8586 55.3082C32.6342 56.4763 32.5762 57.8865 32.3184 59.0496V61.4311C32.961 69.5929 36.2281 75.579 40.8847 80.1363C41.3216 80.5643 42.7288 81.8151 43.1953 81.7688C43.6942 81.7196 44.5926 80.711 45.1664 80.1363C48.2681 77.0345 51.0432 74.2594 54.145 71.1576C55.3475 69.9551 56.8473 68.6994 57.6138 67.4851C58.7121 65.7462 59.1057 63.2467 60.5395 62.0432C61.618 61.1368 63.3303 60.8013 64.7562 60.138C66.1693 59.4806 67.8934 59.1008 68.9051 58.2329C69.7317 57.5243 70.3329 56.1053 71.0139 55.0366C72.7695 52.2802 74.2574 49.7905 76.0474 46.8737C76.4076 46.2863 76.8485 45.4114 77.1358 45.378C77.7125 45.3101 78.8314 47.2034 79.1079 47.6226C80.8261 50.2245 81.9715 53.4877 82.5098 56.7381C83.4004 62.1189 82.0788 67.2873 80.333 70.7502C78.5302 74.3253 75.6843 77.4704 72.4428 79.5931C67.7783 82.6486 60.5405 84.7447 53.6697 82.6545C53.0507 82.4655 52.4691 82.1329 51.9013 82.1782C51.5677 82.2048 51.2961 82.3475 51.054 82.5394C50.9399 82.6309 50.8316 82.7332 50.7283 82.8405L49.6537 83.8344C49.2621 84.1729 48.8104 84.6394 48.8419 84.9651C48.895 85.524 50.0985 85.7602 50.9497 86.0535C56.5422 87.9783 64.4826 88.0206 69.8596 85.9177C75.9254 83.5461 80.5446 79.6432 83.668 74.4218C86.7039 69.3479 88.8718 61.9763 86.9332 54.0151L86.9302 54.0161Z" fill="white"/>
</svg>
