<svg width="32" height="33" viewBox="0 0 32 33" fill="none" xmlns="http://www.w3.org/2000/svg">
<g clip-path="url(#clip0_138_635)">
<path d="M16.0312 32.9802C24.5917 32.9802 31.5312 25.8168 31.5312 16.9802C31.5312 8.14367 24.5917 0.980225 16.0312 0.980225C7.47084 0.980225 0.53125 8.14367 0.53125 16.9802C0.53125 25.8168 7.47084 32.9802 16.0312 32.9802Z" fill="#000001"/>
<path fill-rule="evenodd" clip-rule="evenodd" d="M12.3635 23.125L8.11815 18.4347C7.53694 17.7925 7.5703 16.7766 8.19236 16.1766C8.81443 15.5767 9.79862 15.6112 10.3798 16.2532L13.6545 19.8711L18.8378 14.8719C18.8845 14.8269 18.9332 14.7857 18.9835 14.7477L21.4211 12.3969C22.0431 11.7969 23.0274 11.8314 23.6085 12.4736C24.1897 13.1156 24.1563 14.1316 23.5343 14.7316L16.0895 21.9119L16.0815 21.9032L13.5062 24.387L12.3635 23.125Z" fill="white"/>
</g>
<defs>
<clipPath id="clip0_138_635">
<rect width="31" height="32" fill="white" transform="translate(0.53125 0.980225)"/>
</clipPath>
</defs>
</svg>
