<svg width="17" height="17" viewBox="0 0 17 17" fill="none" xmlns="http://www.w3.org/2000/svg">
<path d="M8.38589 0.103468C8.52385 0.241429 8.52385 0.465714 8.38589 0.603674L1.20769 7.78187L15.9185 7.78188C16.1138 7.78188 16.2723 7.94036 16.2723 8.13563C16.2723 8.3309 16.1138 8.48939 15.9185 8.48939L1.20769 8.48939L8.38662 15.6676C8.52458 15.8055 8.52458 16.0298 8.38662 16.1678C8.24866 16.3057 8.02437 16.3057 7.88641 16.1678L0.104 8.38608C0.0714668 8.35355 0.0452675 8.31392 0.0268959 8.27077C0.00921857 8.22763 3.53608e-07 8.18163 3.55618e-07 8.13563C3.57629e-07 8.08963 0.00918615 8.04367 0.0268959 8.00049C0.0445713 7.95661 0.0707706 7.91771 0.104 7.88518L7.88568 0.103501C8.02367 -0.034494 8.24793 -0.0344921 8.38589 0.103468Z" fill="black"/>
</svg>
