<svg width="26" height="22" viewBox="0 0 26 22" fill="none" xmlns="http://www.w3.org/2000/svg">
<path d="M25.3799 7.77826C25.3799 6.19071 24.088 4.89884 22.5005 4.89884H19.451L18.9133 2.59384C18.665 1.52895 17.7278 0.7854 16.6348 0.7854H9.44432C8.35129 0.7854 7.41409 1.52895 7.16588 2.59384L6.62809 4.89884H3.57863C1.99109 4.89884 0.699219 6.19071 0.699219 7.77826C0.699219 8.96943 1.42664 9.99409 2.46043 10.4314L4.51501 19.3328C4.78938 20.5219 5.83337 21.3526 7.05375 21.3526H19.0254C20.2457 21.3526 21.2897 20.5219 21.5645 19.3328L23.6187 10.4314C24.6525 9.994 25.3799 8.96943 25.3799 7.77826ZM8.76782 2.96742C8.84178 2.65175 9.11977 2.43078 9.44432 2.43078H16.6348C16.9593 2.43078 17.2373 2.65175 17.3113 2.96742L17.7615 4.89884H8.31756L8.76782 2.96742ZM19.9609 18.9625C19.8596 19.4011 19.4753 19.7072 19.0254 19.7072H7.05375C6.60382 19.7072 6.21938 19.4011 6.11819 18.9625L4.20124 10.6577H21.8778L19.9609 18.9625ZM22.5005 9.01229H3.57863C2.89818 9.01229 2.3446 8.4587 2.3446 7.77826C2.3446 7.09781 2.89818 6.54422 3.57863 6.54422H22.5005C23.1809 6.54422 23.7345 7.09781 23.7345 7.77826C23.7345 8.4587 23.1809 9.01229 22.5005 9.01229Z" fill="white"/>
<path d="M8.92425 17.2392C9.37558 17.2392 9.74694 16.8678 9.74694 16.4165V13.9484C9.74694 13.4971 9.37558 13.1257 8.92425 13.1257C8.47292 13.1257 8.10156 13.4971 8.10156 13.9484V16.4165C8.10156 16.8678 8.47292 17.2392 8.92425 17.2392Z" fill="white"/>
<path d="M17.1547 17.2392C17.606 17.2392 17.9774 16.8678 17.9774 16.4165V13.9484C17.9774 13.4971 17.606 13.1257 17.1547 13.1257C16.7034 13.1257 16.332 13.4971 16.332 13.9484V16.4165C16.332 16.8678 16.7034 17.2392 17.1547 17.2392Z" fill="white"/>
<path d="M13.0414 17.2392C13.4928 17.2392 13.8641 16.8678 13.8641 16.4165V13.9484C13.8641 13.4971 13.4928 13.1257 13.0414 13.1257C12.5901 13.1257 12.2188 13.4971 12.2188 13.9484V16.4165C12.2188 16.8678 12.5901 17.2392 13.0414 17.2392Z" fill="white"/>
</svg>
