<svg width="275" height="278" viewBox="0 0 275 278" fill="none" xmlns="http://www.w3.org/2000/svg">
<rect x="-0.00585938" y="0.655273" width="275" height="277" rx="50" fill="#76DA43"/>
<path d="M205.976 122.728C202.75 109.485 196.49 98.5526 188.053 89.6255C185.883 87.329 182.113 82.2966 178.544 82.1273C177.083 82.0585 173.845 85.7256 171.776 87.7973C165.553 94.0176 158.785 100.788 152.755 106.816C148.413 111.155 143.685 115.245 140.502 119.984C138.771 122.563 137.11 125.265 135.747 128.032C134.123 131.324 132.414 135.438 129.712 137.359C126.987 139.296 122.74 140.124 119.288 141.383C115.946 142.6 111.112 143.839 109.046 145.955C108.024 147.003 107.294 148.773 106.305 150.342C100.272 159.896 93.7395 171.392 87.6488 180.518C85.2278 178.531 83.6086 175.787 81.9787 173.205C77.0707 165.421 73.229 156.102 72.6522 143.942C71.8531 127.167 76.5469 114.245 83.807 103.889C94.1575 89.1255 110.58 78.1268 134.649 77.37C141.097 77.169 146.137 78.3358 151.292 79.9312C152.593 80.3334 154.906 81.6219 156.046 81.5769C157.851 81.5028 159.695 78.9417 160.782 77.7352C162.057 76.3223 163.237 75.2613 163.616 73.814C163.616 73.814 163.616 73.8114 163.616 73.8088C163.621 73.7849 163.626 73.7611 163.632 73.7373C163.701 73.2955 163.341 72.9224 163.166 72.7716C160.999 71.3032 158.277 70.4591 155.678 69.6866C146.989 67.1042 136.366 65.9612 126.056 66.7656C113.017 67.7816 101.15 72.7107 92.406 78.4707C76.8485 88.7127 64.7438 104.588 60.5951 126.202C59.9919 129.342 59.8358 133.134 59.1426 136.261V142.664C60.8703 164.608 69.6545 180.703 82.1745 192.956C83.3493 194.107 87.1328 197.47 88.3869 197.345C89.7284 197.213 92.144 194.501 93.6865 192.956C102.026 184.616 109.487 177.155 117.827 168.815C121.06 165.582 125.093 162.206 127.154 158.941C130.106 154.266 131.165 147.545 135.02 144.31C137.92 141.873 142.523 140.971 146.357 139.187C150.157 137.42 154.792 136.399 157.512 134.065C159.734 132.16 161.351 128.345 163.182 125.471C167.902 118.06 171.903 111.366 176.715 103.524C177.684 101.945 178.869 99.5924 179.642 99.5024C181.192 99.3199 184.2 104.41 184.944 105.538C189.564 112.533 192.643 121.307 194.091 130.046C196.485 144.513 192.932 158.409 188.238 167.72C183.391 177.332 175.739 185.788 167.024 191.495C154.482 199.711 135.022 205.346 116.549 199.727C114.885 199.219 113.321 198.324 111.795 198.446C110.898 198.517 110.167 198.901 109.517 199.417C109.21 199.663 108.919 199.938 108.641 200.227L105.752 202.899C104.698 203.809 103.484 205.063 103.569 205.939C103.712 207.442 106.947 208.077 109.236 208.865C124.272 214.04 145.622 214.154 160.078 208.5C176.387 202.124 188.807 191.63 197.205 177.591C205.367 163.95 211.196 144.13 205.984 122.725L205.976 122.728Z" fill="white"/>
<path d="M203.799 86.7836C202.201 86.7836 200.719 86.4998 199.352 85.9321C198.007 85.3644 196.829 84.5865 195.82 83.5983C194.811 82.5891 194.022 81.4223 193.455 80.0977C192.908 78.7731 192.635 77.354 192.635 75.8402C192.635 74.3264 192.908 72.9072 193.455 71.5827C194.022 70.2371 194.811 69.0702 195.82 68.082C196.829 67.0728 198.007 66.2844 199.352 65.7167C200.719 65.1491 202.201 64.8652 203.799 64.8652C205.397 64.8652 206.879 65.1491 208.246 65.7167C209.612 66.2844 210.8 67.0728 211.809 68.082C212.819 69.0702 213.596 70.2371 214.143 71.5827C214.711 72.9072 214.995 74.3264 214.995 75.8402C214.995 77.354 214.711 78.7731 214.143 80.0977C213.596 81.4223 212.819 82.5891 211.809 83.5983C210.8 84.5865 209.612 85.3644 208.246 85.9321C206.879 86.4998 205.397 86.7836 203.799 86.7836ZM203.799 85.0175C205.145 85.0175 206.374 84.7862 207.489 84.3237C208.603 83.8401 209.57 83.1778 210.39 82.3368C211.21 81.4959 211.841 80.5182 212.282 79.4039C212.724 78.2896 212.945 77.1017 212.945 75.8402C212.945 74.5577 212.724 73.3593 212.282 72.2449C211.841 71.1306 211.21 70.1635 210.39 69.3435C209.57 68.5025 208.603 67.8402 207.489 67.3567C206.374 66.8731 205.145 66.6313 203.799 66.6313C202.453 66.6313 201.223 66.8731 200.109 67.3567C198.995 67.8402 198.028 68.5025 197.208 69.3435C196.409 70.1635 195.788 71.1306 195.347 72.2449C194.905 73.3593 194.685 74.5577 194.685 75.8402C194.685 77.1017 194.905 78.2896 195.347 79.4039C195.788 80.5182 196.409 81.4959 197.208 82.3368C198.028 83.1778 198.995 83.8401 200.109 84.3237C201.223 84.7862 202.453 85.0175 203.799 85.0175ZM207.11 76.9124H209.286C209.097 78.3211 208.487 79.4564 207.457 80.3185C206.427 81.1805 205.197 81.6115 203.767 81.6115C202.737 81.6115 201.802 81.3592 200.961 80.8546C200.141 80.329 199.478 79.6352 198.974 78.7731C198.49 77.8901 198.248 76.9124 198.248 75.8402C198.248 74.7469 198.49 73.7692 198.974 72.9072C199.478 72.0242 200.141 71.3304 200.961 70.8258C201.802 70.3212 202.737 70.0689 203.767 70.0689C205.197 70.0689 206.427 70.4999 207.457 71.3619C208.487 72.2239 209.097 73.3593 209.286 74.7679H207.11C206.963 73.9269 206.585 73.2436 205.975 72.718C205.386 72.1714 204.661 71.898 203.799 71.898C203.126 71.898 202.527 72.0662 202.001 72.4026C201.497 72.739 201.097 73.2016 200.803 73.7903C200.509 74.379 200.361 75.0623 200.361 75.8402C200.361 76.6181 200.509 77.3014 200.803 77.8901C201.097 78.4788 201.497 78.9518 202.001 79.3093C202.527 79.6457 203.126 79.8139 203.799 79.8139C204.64 79.8139 205.365 79.5405 205.975 78.9939C206.606 78.4473 206.984 77.7534 207.11 76.9124Z" fill="white"/>
</svg>
