<svg width="51" height="51" viewBox="0 0 51 51" fill="none" xmlns="http://www.w3.org/2000/svg">
<rect x="-0.00585938" y="0.727539" width="50.1445" height="50.1445" rx="25.0722" fill="black" fill-opacity="0.04"/>
<path d="M25.0753 17.646C26.4082 17.646 27.2784 17.6493 27.6861 17.6558C28.0937 17.6622 28.5628 17.6784 29.0934 17.7043C29.5722 17.7302 29.954 17.7787 30.2387 17.8499C30.5233 17.921 30.7563 17.989 30.9375 18.0537C31.1704 18.1443 31.3742 18.2478 31.5489 18.3643C31.7236 18.4807 31.9015 18.6231 32.0827 18.7913C32.2509 18.9595 32.3933 19.1342 32.5098 19.3154C32.6262 19.4966 32.7298 19.7036 32.8203 19.9366C32.885 20.1048 32.953 20.3313 33.0242 20.616C33.0953 20.9007 33.1439 21.2889 33.1697 21.7806C33.1827 22.2983 33.1956 22.7641 33.2086 23.1782C33.2215 23.5923 33.228 24.4659 33.228 25.7988C33.228 27.1187 33.2215 27.9858 33.2086 28.3999C33.1956 28.814 33.1827 29.2798 33.1697 29.7975C33.1439 30.2892 33.0953 30.6774 33.0242 30.9621C32.953 31.2468 32.885 31.4733 32.8203 31.6415C32.7298 31.8745 32.6262 32.0815 32.5098 32.2627C32.3933 32.4439 32.2509 32.6186 32.0827 32.7868C31.9015 32.968 31.7236 33.1168 31.5489 33.2333C31.3742 33.3497 31.1704 33.4533 30.9375 33.5438C30.7563 33.6085 30.5233 33.6765 30.2387 33.7477C29.954 33.8188 29.5722 33.8609 29.0934 33.8738C28.5628 33.8997 28.0937 33.9159 27.6861 33.9224C27.2784 33.9288 26.4082 33.9321 25.0753 33.9321C23.7553 33.9321 22.8883 33.9288 22.4742 33.9224C22.0601 33.9159 21.5877 33.8997 21.0571 33.8738C20.5783 33.8609 20.1966 33.8188 19.9119 33.7477C19.6272 33.6765 19.3942 33.6085 19.2131 33.5438C18.9931 33.4533 18.7925 33.3497 18.6113 33.2333C18.4302 33.1168 18.2555 32.968 18.0872 32.7868C17.9061 32.6186 17.7572 32.4439 17.6408 32.2627C17.5243 32.0815 17.4208 31.8809 17.3302 31.6609C17.2655 31.4798 17.1975 31.2468 17.1264 30.9621C17.0552 30.6774 17.0131 30.2957 17.0002 29.8169C16.9743 29.2863 16.9581 28.814 16.9517 28.3999C16.9452 27.9858 16.942 27.1187 16.942 25.7988C16.942 24.4659 16.9452 23.5923 16.9517 23.1782C16.9581 22.7641 16.9743 22.2983 17.0002 21.7806C17.0131 21.3018 17.0552 20.9201 17.1264 20.6354C17.1975 20.3507 17.2655 20.1177 17.3302 19.9366C17.4208 19.7036 17.5243 19.4998 17.6408 19.3251C17.7572 19.1504 17.8996 18.9725 18.0678 18.7913C18.249 18.6231 18.4269 18.4807 18.6016 18.3643C18.7763 18.2478 18.9801 18.1443 19.2131 18.0537C19.3942 17.989 19.6272 17.921 19.9119 17.8499C20.1966 17.7787 20.5783 17.7302 21.0571 17.7043C21.5877 17.6784 22.0568 17.6622 22.4645 17.6558C22.8721 17.6493 23.7424 17.646 25.0753 17.646ZM25.0753 15.8602C23.7294 15.8602 22.843 15.8634 22.4159 15.8699C21.9889 15.8764 21.5101 15.8926 20.9795 15.9184C20.4489 15.9443 19.9928 15.9961 19.611 16.0737C19.2293 16.1514 18.8831 16.2549 18.5725 16.3843C18.236 16.5137 17.9255 16.669 17.6408 16.8502C17.3561 17.0314 17.0778 17.2578 16.8061 17.5296C16.5343 17.8013 16.3079 18.0796 16.1267 18.3643C15.9455 18.649 15.7902 18.9595 15.6608 19.296C15.5314 19.6066 15.4279 19.9527 15.3502 20.3345C15.2726 20.7163 15.2208 21.1724 15.195 21.703C15.1691 22.2336 15.1529 22.7124 15.1464 23.1394C15.14 23.5665 15.1367 24.4529 15.1367 25.7988C15.1367 27.1446 15.14 28.031 15.1464 28.4581C15.1529 28.8851 15.1691 29.364 15.195 29.8945C15.2208 30.4251 15.2726 30.8813 15.3502 31.263C15.4279 31.6448 15.5314 31.9909 15.6608 32.3015C15.7902 32.638 15.9455 32.9486 16.1267 33.2333C16.3079 33.518 16.5343 33.7962 16.8061 34.0679C17.0778 34.3397 17.3561 34.5662 17.6408 34.7473C17.9255 34.9285 18.236 35.0838 18.5725 35.2132C18.8831 35.3297 19.2293 35.43 19.611 35.5141C19.9928 35.5982 20.4489 35.6532 20.9795 35.6791C21.5101 35.705 21.9889 35.7211 22.4159 35.7276C22.843 35.7341 23.7294 35.7373 25.0753 35.7373C26.4211 35.7373 27.3076 35.7341 27.7346 35.7276C28.1616 35.7211 28.6405 35.705 29.171 35.6791C29.7016 35.6532 30.1578 35.5982 30.5395 35.5141C30.9213 35.43 31.2674 35.3297 31.578 35.2132C31.9015 35.0838 32.2057 34.9285 32.4904 34.7473C32.775 34.5662 33.0597 34.3397 33.3444 34.0679C33.6162 33.7962 33.8427 33.518 34.0238 33.2333C34.205 32.9486 34.3603 32.638 34.4897 32.3015C34.6062 31.9909 34.7065 31.6448 34.7906 31.263C34.8747 30.8813 34.9232 30.4251 34.9362 29.8945C34.962 29.364 34.9782 28.8851 34.9847 28.4581C34.9912 28.031 34.9944 27.1446 34.9944 25.7988C34.9944 24.4529 34.9912 23.5665 34.9847 23.1394C34.9782 22.7124 34.962 22.2336 34.9362 21.703C34.9232 21.1724 34.8747 20.7163 34.7906 20.3345C34.7065 19.9527 34.6062 19.6066 34.4897 19.296C34.3603 18.9725 34.205 18.6651 34.0238 18.374C33.8427 18.0828 33.6162 17.8013 33.3444 17.5296C33.0727 17.2578 32.7945 17.0314 32.5098 16.8502C32.2251 16.669 31.9145 16.5137 31.578 16.3843C31.2674 16.2678 30.9213 16.1676 30.5395 16.0834C30.1578 15.9993 29.7016 15.9443 29.171 15.9184C28.6405 15.8926 28.1616 15.8764 27.7346 15.8699C27.3076 15.8634 26.4211 15.8602 25.0753 15.8602ZM25.0753 20.6936C24.3765 20.6936 23.7165 20.8295 23.0953 21.1012C22.4742 21.3601 21.9306 21.7224 21.4648 22.1883C20.9989 22.6541 20.6366 23.1977 20.3777 23.8188C20.106 24.44 19.9701 25.1 19.9701 25.7988C19.9701 26.4976 20.106 27.1575 20.3777 27.7787C20.6366 28.3999 20.9989 28.9434 21.4648 29.4092C21.9306 29.8751 22.4742 30.2375 23.0953 30.4963C23.7165 30.768 24.3765 30.9039 25.0753 30.9039C25.7741 30.9039 26.4341 30.768 27.0552 30.4963C27.6764 30.2375 28.2199 29.8751 28.6858 29.4092C29.1516 28.9434 29.514 28.3999 29.7728 27.7787C30.0445 27.1575 30.1804 26.4976 30.1804 25.7988C30.1804 25.1 30.0445 24.44 29.7728 23.8188C29.514 23.1977 29.1516 22.6541 28.6858 22.1883C28.2199 21.7224 27.6764 21.3601 27.0552 21.1012C26.4341 20.8295 25.7741 20.6936 25.0753 20.6936ZM25.0753 29.1181C24.1565 29.1181 23.3735 28.7946 22.7265 28.1475C22.0795 27.5005 21.7559 26.7176 21.7559 25.7988C21.7559 24.88 22.0795 24.097 22.7265 23.45C23.3735 22.803 24.1565 22.4794 25.0753 22.4794C25.9941 22.4794 26.777 22.803 27.424 23.45C28.0711 24.097 28.3946 24.88 28.3946 25.7988C28.3946 26.7176 28.0711 27.5005 27.424 28.1475C26.777 28.7946 25.9941 29.1181 25.0753 29.1181ZM31.578 20.4995C31.578 20.823 31.4616 21.1012 31.2286 21.3342C30.9957 21.5671 30.711 21.6836 30.3745 21.6836C30.051 21.6836 29.7728 21.5671 29.5398 21.3342C29.3069 21.1012 29.1904 20.823 29.1904 20.4995C29.1904 20.163 29.3069 19.8783 29.5398 19.6454C29.7728 19.4125 30.051 19.296 30.3745 19.296C30.711 19.296 30.9957 19.4125 31.2286 19.6454C31.4616 19.8783 31.578 20.163 31.578 20.4995Z" fill="black" fill-opacity="0.4"/>
</svg>
