<svg width="37" height="37" viewBox="0 0 37 37" fill="none" xmlns="http://www.w3.org/2000/svg">
<path fill-rule="evenodd" clip-rule="evenodd" d="M20.4902 19.5944C21.4193 18.4362 21.8693 16.966 21.7477 15.4862C21.6261 14.0064 20.9421 12.6295 19.8364 11.6385C18.7307 10.6475 17.2873 10.1178 15.8031 10.1584C14.3188 10.199 12.9065 10.8067 11.8566 11.8566C10.8067 12.9065 10.199 14.3188 10.1584 15.8031C10.1178 17.2873 10.6475 18.7307 11.6385 19.8364C12.6295 20.9421 14.0064 21.6261 15.4862 21.7477C16.966 21.8693 18.4362 21.4193 19.5944 20.4902L25.1182 26.0133C25.1766 26.0738 25.2464 26.122 25.3237 26.1552C25.4009 26.1884 25.484 26.2059 25.568 26.2066C25.6521 26.2073 25.7355 26.1913 25.8133 26.1595C25.8911 26.1276 25.9618 26.0806 26.0212 26.0212C26.0806 25.9618 26.1276 25.8911 26.1595 25.8133C26.1913 25.7355 26.2073 25.6521 26.2066 25.568C26.2059 25.484 26.1884 25.4009 26.1552 25.3237C26.122 25.2464 26.0738 25.1766 26.0133 25.1182L20.4902 19.5944ZM15.9636 20.501C15.0662 20.501 14.1889 20.2349 13.4428 19.7363C12.6966 19.2377 12.115 18.5291 11.7716 17.7C11.4282 16.8709 11.3383 15.9586 11.5134 15.0784C11.6885 14.1982 12.1206 13.3897 12.7552 12.7552C13.3897 12.1206 14.1982 11.6885 15.0784 11.5134C15.9586 11.3383 16.8709 11.4282 17.7 11.7716C18.5291 12.115 19.2377 12.6966 19.7363 13.4428C20.2349 14.1889 20.501 15.0662 20.501 15.9636C20.5005 17.1668 20.0223 18.3206 19.1715 19.1715C18.3206 20.0223 17.1668 20.5005 15.9636 20.501Z" fill="white"/>
</svg>
