<svg width="51" height="51" viewBox="0 0 51 51" fill="none" xmlns="http://www.w3.org/2000/svg">
<rect x="-0.00585938" y="0.655273" width="50.1445" height="50.1445" rx="25.0722" fill="black" fill-opacity="0.04"/>
<path d="M16.7603 19.8293C16.3177 19.4184 16.0977 18.9098 16.0977 18.3047C16.0977 17.6996 16.3189 17.1686 16.7603 16.7565C17.2028 16.3457 17.7724 16.1396 18.4704 16.1396C19.1683 16.1396 19.7156 16.3457 20.1569 16.7565C20.5995 17.1674 20.8196 17.6843 20.8196 18.3047C20.8196 18.9251 20.5983 19.4184 20.1569 19.8293C19.7144 20.2402 19.153 20.4462 18.4704 20.4462C17.7877 20.4462 17.2028 20.2402 16.7603 19.8293ZM20.4476 22.1862V34.7833H16.4684V22.1862H20.4476Z" fill="black" fill-opacity="0.4"/>
<path d="M33.6936 23.4313C34.5611 24.3731 34.9942 25.6658 34.9942 27.3117V34.5615H31.215V27.8226C31.215 26.9926 30.9996 26.3475 30.57 25.8883C30.1405 25.4292 29.5614 25.1984 28.8364 25.1984C28.1114 25.1984 27.5323 25.428 27.1027 25.8883C26.6731 26.3475 26.4578 26.9926 26.4578 27.8226V34.5615H22.6562V22.1516H26.4578V23.7975C26.8426 23.2488 27.3617 22.8156 28.0137 22.4965C28.6657 22.1775 29.399 22.0186 30.2146 22.0186C31.667 22.0186 32.8274 22.4895 33.6936 23.4313Z" fill="black" fill-opacity="0.4"/>
</svg>
