<svg width="663" height="278" viewBox="0 0 663 278" fill="none" xmlns="http://www.w3.org/2000/svg">
<rect x="-0.00585938" y="0.655273" width="663" height="277" rx="50" fill="#76DA43"/>
<path d="M88.4792 153.58H141.175L147.804 173.639H81.1879L88.4792 153.58ZM146.644 199.169L114.827 107.661L82.3479 199.169H56.9941L101.736 80.1419H129.244L173.655 199.169H146.644Z" fill="white"/>
<path d="M222.12 160.377H203.395V199.169H178.207V80.1419H222.12C231.842 80.1419 240.182 81.6339 247.142 84.6178C254.213 87.6018 259.626 92.0225 263.382 97.8799C267.249 103.737 269.182 111.031 269.182 119.762C269.182 128.383 267.249 135.732 263.382 141.81C259.626 147.889 254.213 152.53 247.142 155.735C240.182 158.83 231.842 160.377 222.12 160.377ZM221.954 101.361H203.395V139.158H221.954C229.025 139.158 234.493 137.445 238.36 134.019C242.226 130.482 244.16 125.785 244.16 119.928C244.16 114.071 242.226 109.539 238.36 106.334C234.493 103.019 229.025 101.361 221.954 101.361Z" fill="white"/>
<path d="M298.238 199.169H273.05V80.1419H319.615C334.639 80.1419 346.294 83.5127 354.58 90.2542C362.866 96.8852 367.008 106.39 367.008 118.768C367.008 126.725 364.633 133.798 359.883 139.987C355.243 146.065 348.67 150.486 340.163 153.249L370.82 199.169H340.826L313.981 157.062H298.238V199.169ZM298.238 101.03V136.34H318.455C326.078 136.34 331.878 134.903 335.855 132.03C339.832 129.046 341.82 124.625 341.82 118.768C341.82 112.8 339.832 108.379 335.855 105.506C331.878 102.522 326.078 101.03 318.455 101.03H298.238Z" fill="white"/>
<path d="M429.757 201.655C421.14 201.655 413.131 200.108 405.729 197.014C398.438 193.919 392.03 189.609 386.507 184.083C380.983 178.447 376.674 171.871 373.581 164.356C370.488 156.73 368.941 148.441 368.941 139.489C368.941 130.538 370.488 122.304 373.581 114.789C376.674 107.274 380.983 100.753 386.507 95.2275C392.03 89.7016 398.438 85.3915 405.729 82.297C413.131 79.2025 421.14 77.6553 429.757 77.6553C438.374 77.6553 446.383 79.2025 453.785 82.297C461.187 85.3915 467.65 89.7016 473.173 95.2275C478.808 100.753 483.171 107.274 486.265 114.789C489.358 122.304 490.904 130.538 490.904 139.489C490.904 148.441 489.358 156.73 486.265 164.356C483.171 171.871 478.808 178.447 473.173 184.083C467.65 189.609 461.187 193.919 453.785 197.014C446.383 200.108 438.374 201.655 429.757 201.655ZM429.757 179.11C435.17 179.11 440.031 178.115 444.34 176.126C448.759 174.026 452.46 171.153 455.442 167.506C458.536 163.858 460.856 159.659 462.402 154.907C464.059 150.044 464.888 144.905 464.888 139.489C464.888 134.074 464.059 128.99 462.402 124.238C460.856 119.486 458.536 115.342 455.442 111.805C452.46 108.158 448.759 105.34 444.34 103.35C440.031 101.251 435.17 100.201 429.757 100.201C424.344 100.201 419.483 101.251 415.175 103.35C410.866 105.34 407.165 108.158 404.072 111.805C401.089 115.342 398.769 119.486 397.112 124.238C395.565 128.99 394.792 134.074 394.792 139.489C394.792 144.905 395.565 150.044 397.112 154.907C398.769 159.659 401.089 163.858 404.072 167.506C407.165 171.153 410.866 174.026 415.175 176.126C419.483 178.115 424.344 179.11 429.757 179.11Z" fill="white"/>
<path d="M538.932 160.377H520.207V199.169H495.019V80.1419H538.932C548.654 80.1419 556.995 81.6339 563.955 84.6178C571.025 87.6018 576.438 92.0225 580.194 97.8799C584.061 103.737 585.994 111.031 585.994 119.762C585.994 128.383 584.061 135.732 580.194 141.81C576.438 147.889 571.025 152.53 563.955 155.735C556.995 158.83 548.654 160.377 538.932 160.377ZM538.767 101.361H520.207V139.158H538.767C545.837 139.158 551.305 137.445 555.172 134.019C559.039 130.482 560.972 125.785 560.972 119.928C560.972 114.071 559.039 109.539 555.172 106.334C551.305 103.019 545.837 101.361 538.767 101.361Z" fill="white"/>
</svg>
