<svg width="37" height="37" viewBox="0 0 37 37" fill="none" xmlns="http://www.w3.org/2000/svg">
<rect x="0.4375" y="0.387451" width="36.3633" height="36.3633" rx="18.1816" fill="white"/>
<path fill-rule="evenodd" clip-rule="evenodd" d="M20.9277 19.982C21.8568 18.8238 22.3068 17.3537 22.1852 15.8739C22.0636 14.3941 21.3796 13.0171 20.2739 12.0261C19.1682 11.0351 17.7248 10.5055 16.2406 10.5461C14.7563 10.5866 13.344 11.1944 12.2941 12.2443C11.2442 13.2942 10.6365 14.7065 10.5959 16.1907C10.5553 17.675 11.085 19.1183 12.076 20.224C13.067 21.3297 14.4439 22.0137 15.9237 22.1353C17.4035 22.257 18.8737 21.8069 20.0319 20.8779L25.5557 26.401C25.6141 26.4615 25.6839 26.5097 25.7612 26.5429C25.8384 26.576 25.9215 26.5935 26.0055 26.5942C26.0896 26.595 26.173 26.5789 26.2508 26.5471C26.3286 26.5153 26.3993 26.4683 26.4587 26.4088C26.5181 26.3494 26.5651 26.2787 26.597 26.2009C26.6288 26.1231 26.6448 26.0397 26.6441 25.9557C26.6434 25.8716 26.6259 25.7885 26.5927 25.7113C26.5595 25.634 26.5113 25.5642 26.4508 25.5058L20.9277 19.982ZM16.4011 20.8886C15.5037 20.8886 14.6264 20.6225 13.8803 20.1239C13.1341 19.6254 12.5525 18.9167 12.2091 18.0876C11.8657 17.2585 11.7758 16.3462 11.9509 15.466C12.126 14.5859 12.5581 13.7774 13.1927 13.1428C13.8272 12.5083 14.6357 12.0761 15.5159 11.901C16.3961 11.726 17.3084 11.8158 18.1375 12.1592C18.9666 12.5027 19.6752 13.0842 20.1738 13.8304C20.6724 14.5766 20.9385 15.4538 20.9385 16.3512C20.938 17.5545 20.4598 18.7083 19.609 19.5591C18.7581 20.4099 17.6043 20.8881 16.4011 20.8886Z" fill="black"/>
</svg>
