<svg width="17" height="17" viewBox="0 0 17 17" fill="none" xmlns="http://www.w3.org/2000/svg">
<path fill-rule="evenodd" clip-rule="evenodd" d="M10.334 9.43815C11.2631 8.27995 11.7131 6.80979 11.5915 5.32998C11.4698 3.85017 10.7859 2.4732 9.68015 1.48223C8.57444 0.49125 7.13107 -0.0384074 5.64682 0.00217058C4.16258 0.0427486 2.7503 0.650478 1.70039 1.70039C0.650478 2.7503 0.0427486 4.16258 0.00217058 5.64682C-0.0384074 7.13107 0.49125 8.57444 1.48223 9.68015C2.4732 10.7859 3.85017 11.4698 5.32998 11.5915C6.80979 11.7131 8.27995 11.2631 9.43815 10.334L14.9619 15.8571C15.0203 15.9176 15.0902 15.9658 15.1674 15.999C15.2446 16.0322 15.3277 16.0496 15.4118 16.0504C15.4958 16.0511 15.5792 16.0351 15.657 16.0032C15.7348 15.9714 15.8055 15.9244 15.8649 15.8649C15.9244 15.8055 15.9714 15.7348 16.0032 15.657C16.0351 15.5792 16.0511 15.4958 16.0504 15.4118C16.0496 15.3277 16.0322 15.2446 15.999 15.1674C15.9658 15.0902 15.9176 15.0203 15.8571 14.9619L10.334 9.43815ZM5.80735 10.3447C4.90994 10.3447 4.03268 10.0786 3.28651 9.58006C2.54034 9.08148 1.95877 8.37284 1.61535 7.54374C1.27193 6.71464 1.18207 5.80232 1.35715 4.92215C1.53222 4.04198 1.96437 3.2335 2.59893 2.59893C3.2335 1.96437 4.04198 1.53222 4.92215 1.35715C5.80232 1.18207 6.71464 1.27193 7.54374 1.61535C8.37284 1.95877 9.08148 2.54034 9.58006 3.28651C10.0786 4.03268 10.3447 4.90994 10.3447 5.80735C10.3442 7.01059 9.86603 8.1644 9.01522 9.01522C8.1644 9.86603 7.01059 10.3442 5.80735 10.3447Z" fill="white"/>
</svg>
