<svg width="22" height="22" viewBox="0 0 22 22" fill="none" xmlns="http://www.w3.org/2000/svg">
<path d="M10.559 0.138531C10.3743 0.323245 10.3743 0.623538 10.559 0.808249L20.1698 10.419L0.473639 10.419C0.212199 10.419 4.64706e-07 10.6312 4.76133e-07 10.8927C4.87561e-07 11.1541 0.212199 11.3663 0.473639 11.3663L20.1698 11.3663L10.558 20.977C10.3733 21.1617 10.3733 21.462 10.558 21.6468C10.7427 21.8315 11.043 21.8315 11.2277 21.6468L21.6475 11.228C21.691 11.1844 21.7261 11.1314 21.7507 11.0736C21.7744 11.0158 21.7867 10.9543 21.7867 10.8927C21.7867 10.8311 21.7744 10.7695 21.7507 10.7117C21.727 10.653 21.692 10.6009 21.6475 10.5573L11.2287 0.138575C11.0439 -0.0461822 10.7437 -0.0461821 10.559 0.138531Z" fill="white"/>
</svg>
