<svg width="51" height="51" viewBox="0 0 51 51" fill="none" xmlns="http://www.w3.org/2000/svg">
<rect x="0.283203" y="0.655273" width="50.1445" height="50.1445" rx="25.0722" fill="black" fill-opacity="0.04"/>
<path d="M34.8051 21.8679C34.8051 21.8679 34.7486 21.6232 34.6357 21.1338C34.5227 20.6443 34.3219 20.2553 34.0333 19.9666C33.6693 19.5776 33.3022 19.3485 32.932 19.2795C32.5618 19.2105 32.2826 19.1634 32.0943 19.1383C31.4292 19.0881 30.7013 19.0505 29.9107 19.0254C29.12 19.0003 28.389 18.9815 27.7176 18.9689C27.0462 18.9564 26.4845 18.9501 26.0328 18.9501C25.581 18.9501 25.3551 18.9501 25.3551 18.9501C25.3551 18.9501 25.1292 18.9501 24.6774 18.9501C24.2256 18.9501 23.664 18.9564 22.9926 18.9689C22.3211 18.9815 21.5901 19.0003 20.7995 19.0254C20.0088 19.0505 19.2809 19.0881 18.6158 19.1383C18.4276 19.1634 18.1483 19.2105 17.7781 19.2795C17.4079 19.3485 17.0408 19.5776 16.6769 19.9666C16.3882 20.2553 16.1874 20.6443 16.0745 21.1338C15.9615 21.6232 15.905 21.8679 15.905 21.8679C15.905 21.8679 15.8737 22.1942 15.8109 22.8468C15.7482 23.4994 15.7168 24.2147 15.7168 24.9928V26.4612C15.7168 27.2393 15.7482 27.9515 15.8109 28.5978C15.8737 29.2441 15.905 29.5672 15.905 29.5672C15.905 29.5672 15.9615 29.8151 16.0745 30.3108C16.1874 30.8065 16.3882 31.1987 16.6769 31.4874C17.0408 31.8764 17.433 32.0992 17.8534 32.1556C18.2738 32.2121 18.5907 32.2655 18.8041 32.3157C19.1931 32.3533 19.7516 32.3847 20.4795 32.4098C21.2073 32.4349 21.9321 32.4537 22.6537 32.4663C23.3753 32.4788 24.006 32.4914 24.5456 32.5039C25.0852 32.5039 25.3551 32.5039 25.3551 32.5039C25.3551 32.5039 25.581 32.5039 26.0328 32.5039C26.4845 32.5039 27.0462 32.4976 27.7176 32.4851C28.389 32.4725 29.12 32.4474 29.9107 32.4098C30.7013 32.3847 31.4355 32.347 32.1131 32.2968C32.3014 32.2843 32.5775 32.2435 32.9414 32.1745C33.3054 32.1054 33.6693 31.8764 34.0333 31.4874C34.3219 31.1987 34.5227 30.8065 34.6357 30.3108C34.7486 29.8151 34.8051 29.5672 34.8051 29.5672C34.8051 29.5672 34.8365 29.2441 34.8992 28.5978C34.962 27.9515 34.9933 27.2393 34.9933 26.4612V24.9928C34.9933 24.2147 34.962 23.4994 34.8992 22.8468C34.8365 22.1942 34.8051 21.8679 34.8051 21.8679ZM23.3596 28.2307V22.8092L28.5741 25.5199L23.3596 28.2307Z" fill="black" fill-opacity="0.4"/>
</svg>
